<?xml version="1.0" encoding="iso-8859-1"?>
<svg version="1.1" id="Capa_1" xmlns="http://www.w3.org/2000/svg" xmlns:xlink="http://www.w3.org/1999/xlink" x="0px" y="0px"
	 viewBox="0 0 512 512" style="enable-background:new 0 0 512 512;" xml:space="preserve">
<path style="fill:#303030;" d="M469.333,149.333c0-23.564-19.103-42.667-42.667-42.667h-384C19.103,106.667,0,125.769,0,149.333V256
	c0,23.564,19.103,42.667,42.667,42.667h384c23.564,0,42.667-19.103,42.667-42.667V149.333z"/>
<path style="fill:#0288D1;" d="M426.667,277.333h-384c-11.782,0-21.333-9.551-21.333-21.333V149.333
	c0-11.782,9.551-21.333,21.333-21.333h384c11.782,0,21.333,9.551,21.333,21.333V256C448,267.782,438.449,277.333,426.667,277.333z"
	/>
<g>
	<path style="fill:#303030;" d="M102.385,186.667c-2.958-5.104-9.51-6.854-14.573-3.906l-2.479,1.431v-2.858
		c0-5.896-4.771-10.667-10.667-10.667c-5.896,0-10.667,4.771-10.667,10.667v2.858l-2.479-1.431
		c-5.094-2.948-11.625-1.198-14.573,3.906c-2.948,5.104-1.198,11.625,3.906,14.573l2.473,1.427l-2.473,1.427
		c-5.104,2.948-6.854,9.469-3.906,14.573c1.979,3.417,5.563,5.333,9.25,5.333c1.813,0,3.646-0.458,5.323-1.427L64,221.142V224
		c0,5.896,4.771,10.667,10.667,10.667c5.896,0,10.667-4.771,10.667-10.667v-2.858l2.479,1.431c1.677,0.969,3.51,1.427,5.323,1.427
		c3.688,0,7.271-1.917,9.25-5.333c2.948-5.104,1.198-11.625-3.906-14.573l-2.473-1.427l2.473-1.427
		C103.583,198.292,105.333,191.771,102.385,186.667z"/>
	<path style="fill:#303030;" d="M187.719,186.667c-2.969-5.104-9.5-6.854-14.573-3.906l-2.479,1.431v-2.858
		c0-5.896-4.771-10.667-10.667-10.667c-5.896,0-10.667,4.771-10.667,10.667v2.858l-2.479-1.431
		c-5.115-2.948-11.635-1.198-14.573,3.906c-2.948,5.104-1.198,11.625,3.906,14.573l2.473,1.427l-2.473,1.427
		c-5.104,2.948-6.854,9.469-3.906,14.573c1.979,3.417,5.563,5.333,9.25,5.333c1.813,0,3.646-0.458,5.323-1.427l2.479-1.431V224
		c0,5.896,4.771,10.667,10.667,10.667c5.896,0,10.667-4.771,10.667-10.667v-2.858l2.479,1.431c1.677,0.969,3.51,1.427,5.323,1.427
		c3.688,0,7.271-1.917,9.25-5.333c2.948-5.104,1.198-11.625-3.906-14.573l-2.473-1.427l2.473-1.427
		C188.917,198.292,190.667,191.771,187.719,186.667z"/>
	<path style="fill:#303030;" d="M273.052,186.667c-2.958-5.104-9.49-6.854-14.573-3.906L256,184.191v-2.858
		c0-5.896-4.771-10.667-10.667-10.667c-5.896,0-10.667,4.771-10.667,10.667v2.858l-2.479-1.431
		c-5.104-2.948-11.635-1.198-14.573,3.906c-2.948,5.104-1.198,11.625,3.906,14.573l2.473,1.427l-2.473,1.427
		c-5.104,2.948-6.854,9.469-3.906,14.573c1.979,3.417,5.563,5.333,9.25,5.333c1.813,0,3.646-0.458,5.323-1.427l2.479-1.431V224
		c0,5.896,4.771,10.667,10.667,10.667c5.896,0,10.667-4.771,10.667-10.667v-2.858l2.479,1.431c1.677,0.969,3.51,1.427,5.323,1.427
		c3.688,0,7.271-1.917,9.25-5.333c2.948-5.104,1.198-11.625-3.906-14.573l-2.473-1.427l2.473-1.427
		C274.25,198.292,276,191.771,273.052,186.667z"/>
	<path style="fill:#303030;" d="M358.349,186.667c-2.958-5.104-9.49-6.854-14.573-3.906l-2.479,1.431v-2.858
		c0-5.896-4.771-10.667-10.667-10.667s-10.667,4.771-10.667,10.667v2.858l-2.479-1.431c-5.104-2.948-11.635-1.198-14.573,3.906
		c-2.948,5.104-1.198,11.625,3.906,14.573l2.473,1.427l-2.473,1.427c-5.104,2.948-6.854,9.469-3.906,14.573
		c1.979,3.417,5.563,5.333,9.25,5.333c1.813,0,3.646-0.458,5.323-1.427l2.479-1.431V224c0,5.896,4.771,10.667,10.667,10.667
		s10.667-4.771,10.667-10.667v-2.858l2.479,1.431c1.677,0.969,3.51,1.427,5.323,1.427c3.688,0,7.271-1.917,9.25-5.333
		c2.948-5.104,1.198-11.625-3.906-14.573l-2.473-1.427l2.473-1.427C359.546,198.292,361.296,191.771,358.349,186.667z"/>
	<circle style="fill:#303030;" cx="394.667" cy="288" r="117.333"/>
</g>
<circle style="fill:#7CB342;" cx="394.667" cy="288" r="96"/>
<path style="opacity:0.2;fill:#FFFFFF;enable-background:new    ;" d="M309.333,298.667c0-52.938,43.063-96,96-96
	c23.749,0,45.23,8.99,62.008,23.326C449.72,205.371,423.855,192,394.667,192c-52.938,0-96,43.063-96,96
	c0,29.189,13.371,55.053,33.992,72.674C318.323,343.897,309.333,322.415,309.333,298.667z"/>
<path style="fill:#303030;" d="M440.458,248.458l-67.125,67.125l-24.458-24.458c-4.167-4.167-10.917-4.167-15.083,0
	c-4.167,4.167-4.167,10.917,0,15.083l32,32c2.083,2.083,4.813,3.125,7.542,3.125s5.458-1.042,7.542-3.125l74.667-74.667
	c4.167-4.167,4.167-10.917,0-15.083C451.375,244.292,444.625,244.292,440.458,248.458z"/>
<linearGradient id="SVGID_1_" gradientUnits="userSpaceOnUse" x1="-45.8664" y1="641.7234" x2="-23.0261" y2="631.0732" gradientTransform="matrix(21.3333 0 0 -21.3333 996.3334 13791.667)">
	<stop  offset="0" style="stop-color:#FFFFFF;stop-opacity:0.2"/>
	<stop  offset="1" style="stop-color:#FFFFFF;stop-opacity:0"/>
</linearGradient>
<path style="fill:url(#SVGID_1_);" d="M469.333,197.561v-48.228c0-23.565-19.103-42.667-42.667-42.667h-384
	C19.103,106.667,0,125.768,0,149.333V256c0,23.564,19.103,42.667,42.667,42.667h235.207
	c5.414,59.711,55.695,106.667,116.793,106.667C459.365,405.333,512,352.698,512,288C512,251.643,495.376,219.1,469.333,197.561z"/>
<g>
</g>
<g>
</g>
<g>
</g>
<g>
</g>
<g>
</g>
<g>
</g>
<g>
</g>
<g>
</g>
<g>
</g>
<g>
</g>
<g>
</g>
<g>
</g>
<g>
</g>
<g>
</g>
<g>
</g>
</svg>
